<?xml version="1.0" standalone="no"?>
<!DOCTYPE svg PUBLIC "-//W3C//DTD SVG 20010904//EN"
 "http://www.w3.org/TR/2001/REC-SVG-20010904/DTD/svg10.dtd">
<svg version="1.0" xmlns="http://www.w3.org/2000/svg"
 width="192.000000pt" height="192.000000pt" viewBox="0 0 192.000000 192.000000"
 preserveAspectRatio="xMidYMid meet">
<metadata>
Created by potrace 1.11, written by Peter Selinger 2001-2013
</metadata>
<g transform="translate(0.000000,192.000000) scale(0.100000,-0.100000)"
fill="#000000" stroke="none">
<path d="M580 1879 c0 -5 5 -9 11 -9 15 0 87 -52 135 -96 64 -62 111 -125 144
-195 49 -105 60 -160 56 -289 -4 -139 -26 -221 -98 -370 -91 -189 -129 -293
-159 -435 -36 -174 -10 -315 72 -396 58 -56 74 -59 354 -59 236 0 255 1 256
18 0 9 1 426 1 927 l2 910 -387 1 c-222 1 -387 -2 -387 -7z"/>
</g>
</svg>
